<svg width="200px" xmlns="http://www.w3.org/2000/svg" viewBox="0 0 287.03 287.03">
        <defs>
            <style>
                .cls-1 {
                    fill: #fff;
                }
            </style>
        </defs>
        <g id="Layer_2" data-name="Layer 2">
            <g id="Layer_1-2" data-name="Layer 1">
                <circle cx="143.51" cy="143.51" r="143.51" />
                <path id="Z1" class="cls-1"
                    d="M156.2,103.67l-12,26-.67,1.45-.46,1-6.34,13.74-19.89-19.89-16.6-16.6Q97.09,119.77,93.31,130q-6.42,17.45-14.5,34a375.68,375.68,0,0,1-45.43,71.55,143.58,143.58,0,0,1-20.57-32.7A374.09,374.09,0,0,0,48,133.14,372.65,372.65,0,0,0,59.45,97.56c.11-.39.21-.77.31-1.16Q62.7,85.35,65,74a376.4,376.4,0,0,0,6.82-54.77l40,40,12.62,12.62,6,6,20.42,20.42Z" />
                <path id="Z2" class="cls-1"
                    d="M274.24,202.89h0q-2.89,6.39-6.4,12.41a143.78,143.78,0,0,1-14.18,20.27,375.13,375.13,0,0,1-52.43-86.88q-1.53-3.52-3-7.1l-1.48,2.64-10.84,19.27L174.6,183.66l-9.93,17.65L159.8,210l-12.6,22.41-53.8-53.8q8.63-15.94,15.75-32.78l30.61,30.61,2,2,1.79-3.86,2.34-5.06,4.59-9.94,17.92-38.79,1.55-3.33,9.17-19.85,2.78-6,33.4-72.29A374.79,374.79,0,0,0,226.16,92c.45,1.86.94,3.72,1.43,5.57A373.51,373.51,0,0,0,274.24,202.89Z" />
            </g>
        </g>
    </svg>

    <svg style="width:600; height:500; viewBox:0 0 600 500; display:none; margin:40px auto 40px;">
        <rect fill="#4E4E4E" width="600" height="500" />
        <g stroke="none" stroke-width="2" fill="none" fill-opacity="0">

            <!--     First word -->
            <path id="I1" style="fill:none;stroke:#FFFFFF;" d="M60,100h30v130H60V100z" />
            <path id="L1" style="fill:#FFFFFF;stroke:#FFFFFF;" d="M180,100c0,0,24.697-5.303,30,0c17.678,17.678,0,100,0,100
      s49.393-10.607,60,0c5.303,5.303,0,30,0,30h-90V100z" />
            <path id="O1-outer" style="fill:none;stroke:#FFFFFF;"
                d="M298.667,100c10.408-6.923,39.088-6.098,50,0c8.328,4.654,18.119,23.147,20,32.5
        c3.204,15.931,4.933,49.517,0,65c-2.896,9.09-11.494,28.18-20,32.5c-11.145,5.66-39.261,6.397-50,0
        c-8.196-4.882-17.402-23.32-20-32.5c-4.426-15.636-4.071-49.268,0-65C281.057,123.264,290.723,105.284,298.667,100z" />
            <path id="O1-inner" style="fill:none;stroke:#FFFFFF;"
                d="M296.427,138.675c1.887-6.53,8.405-19.991,14.5-23c5.866-2.896,20.715-3.615,26.167,0
      c5.592,3.708,12.488,16.426,13.833,23c2.281,11.144,2.939,34.511,0,45.5c-1.979,7.399-6.873,23.66-13.5,27.5
      c-5.804,3.363-21.4,3.935-26.833,0c-6.263-4.536-12.545-19.938-14.167-27.5C294.042,173.053,293.27,149.604,296.427,138.675z" />
            <path id="V1" style="fill:#FFFFFF;stroke:#FFFFFF;" d="M378.333,100c0,0,13.927-2.678,17.333,0C418.421,117.888,423,212.5,423,212.5
    s4.579-94.612,27.333-112.5c3.538-2.781,18,0,18,0s-4.777,109.295-31,130c-5.559,4.389-23.222,4.904-28.333,0
    C384.906,206.88,378.333,100,378.333,100z" />
            <path id="E1" style="fill:#FFFFFF;stroke:#FFFFFF;" d="M477,100c0,0,74.09-15.91,90,0c3.948,3.948,0,22.333,0,22.333h-71.333l-0.667,27h72
	v27h-72V203c0,0,59.272-12.728,72,0c4.773,4.773,0,27,0,27h-90V100z" />

            <line id="line1" style="fill:none;stroke:#59C16D;stroke-width:6;" x1="60" y1="238.667" x2="577"
                y2="238.667" />

            <!--     Second word -->
            <path id="C1" class="delay" style="fill:#73bbef;stroke:#FFFFFF;"
                d="M117.667,383.083c-5.266,4.156-21.464,4.021-26.833,0
          c-6.19-4.635-12.529-19.942-14.167-27.5c-2.409-11.117-3.157-34.572,0-45.5c1.887-6.53,8.658-19.525,14.5-23
          c5.622-3.344,20.472-3.22,26.167,0c5.841,3.303,7.684,20.314,13.833,23c4.532,1.979,17.033-2.278,18.5-7
          c2.831-9.11-11.672-27.846-20-32.5c-10.912-6.098-39.592-6.923-50,0c-7.944,5.284-18.025,23.166-20,32.5
          c-3.364,15.898-4.958,49.525,0,65c2.911,9.085,11.495,28.178,20,32.5c11.144,5.663,39.557,6.87,50,0
          c7.97-5.244,21.61-23.097,20-32.5c-0.942-5.502-13.106-13.936-18.5-12.5C123.766,357.553,123.679,378.338,117.667,383.083z" />
            <path id="O2-outer" class="delay" style="fill:none;stroke:#FFFFFF;"
                d="M180.523,270.676c10.408-6.923,39.088-6.098,50,0c8.328,4.654,18.119,23.147,20,32.5
        c3.204,15.931,4.933,49.517,0,65c-2.896,9.09-11.494,28.18-20,32.5c-11.145,5.66-39.261,6.397-50,0
        c-8.196-4.882-17.402-23.32-20-32.5c-4.426-15.636-4.071-49.268,0-65C162.913,293.94,172.58,275.96,180.523,270.676z" />
            <path id="O2-inner" class="delay" style="fill:none;stroke:#FFFFFF;"
                d="M178.284,310.349c1.887-6.53,8.405-19.991,14.5-23c5.866-2.896,20.715-3.615,26.167,0
      c5.592,3.708,12.488,16.426,13.833,23c2.281,11.144,2.939,34.511,0,45.5c-1.979,7.399-6.873,23.66-13.5,27.5
      c-5.804,3.363-21.4,3.935-26.833,0c-6.263-4.536-12.545-19.938-14.167-27.5C175.898,344.727,175.127,321.277,178.284,310.349z" />
            <path id="D1-outer" class="delay" style="fill:#2e9bc6;stroke:#FFFFFF;" d="M260.917,270.583c0,0,54.723-8.537,70,0
    c8.328,4.654,20,32.5,20,32.5v65c0,0-11.672,27.846-20,32.5c-15.277,8.537-70,0-70,0v-32.5v-65V270.583z" />
            <path id="D1-inner" class="delay" style="fill:#4E4E4E;stroke:#FFFFFF;" d="M278.667,310.583v-23c0,0,31.817-5.004,40.667,0c5.841,3.303,13.833,23,13.833,23
    v45.5c0,0-7,23.45-13.5,27.5c-8.699,5.421-41,0-41,0v-27.5V310.583z" />
            <path id="I2" class="delay" style="fill:none;stroke:#FFFFFF;" d="M359.667,270.583h25v130h-25V270.583z" />
            <polygon id="N1" class="delay" style="fill:#37d34e;stroke:#FFFFFF;" points="399.667,270.583 421.667,270.583 441.667,383.583 441.667,270.583 
    459,270.583 459,400.583 431.333,400.583 414,293 414.333,400.583 398.333,400.583 " />
            <path id="G1" class="delay" style="fill:#e2e563;stroke:#FFFFFF;" d="M496.333,270.583H554c0,0,20.398,15.76,21.28,23.668
    c0.648,5.811-9.766,17.454-15.614,17.415c-6.969-0.046-12.365-17.401-18.333-21c-6.635-4.001-24.245-4.167-30.988-0.352
    C503.601,294.13,495.267,308.591,493,316c-2.926,9.562-3.307,30.563,0,40c2.723,7.771,18,27.583,18,27.583s23.094,2.925,30,0
    c5.956-2.523,15.197-12.754,18-18.583c0.976-2.029,1.91-7.393,0.333-9c-1.632-1.663-7.334,1.391-9.318,0.169
    c-3.797-2.337-3.483-14.666-0.342-17.83c4.814-4.848,23.071-5.018,27.327,0.327c5.502,6.91,4.15,27.536,0,35.333
    c-4.423,8.31-26.667,26.583-26.667,26.583h-54.667c0,0-19.228-19.107-22.167-27.417c-5.877-16.616-6.268-54.027,0-70.5
    C477.001,293.465,496.333,270.583,496.333,270.583z" />

            <line id="line2" style="fill:none;stroke:#59C16D;stroke-width:6;" x1="577" y1="409" x2="60" y2="409" />
        </g>
    </svg>